<?xml version="1.0" encoding="utf-8"?>
<!-- Generator: Adobe Illustrator 27.5.0, SVG Export Plug-In . SVG Version: 6.00 Build 0)  -->
<svg version="1.1" id="Layer_1" xmlns="http://www.w3.org/2000/svg" xmlns:xlink="http://www.w3.org/1999/xlink" x="0px" y="0px"
	 viewBox="0 0 14.9 14.9" style="enable-background:new 0 0 14.9 14.9;" xml:space="preserve">
<style type="text/css">
	.st0{opacity:0.66;}
	.st1{fill-rule:evenodd;clip-rule:evenodd;fill:#FFFFFF;}
</style>
<g class="st0">
	<g>
		<g>
			<path id="SVGID_1_" class="st1" d="M5.9,7.6c0-3.5,1.7-6.2,3.9-6.2s3.9,2.8,3.9,6.2s-1.7,6.2-3.9,6.2S5.9,11,5.9,7.6z M12.9,7.6
				c0-2.9-1.4-5.2-3.2-5.2S6.5,4.7,6.5,7.6s1.4,5.2,3.2,5.2S12.9,10.4,12.9,7.6z M9.9,3.5c-1.4,0-2.5,1.8-2.5,4s1.1,4,2.5,4
				c0.9,0,1.7-0.7,2.1-1.9c-0.5,1.3-1.3,2.2-2.3,2.2C8.2,11.9,7,10,7,7.6s1.2-4.3,2.7-4.3c1,0,1.9,0.9,2.3,2.2
				C11.6,4.3,10.8,3.5,9.9,3.5z M9.8,5.1c0.8,0,1.5,1.1,1.5,2.5s-0.7,2.5-1.5,2.5c-0.5,0-1-0.5-1.3-1.2c0.3,0.8,0.8,1.3,1.4,1.3
				c0.9,0,1.6-1.2,1.6-2.7s-0.7-2.7-1.6-2.7c-0.6,0-1.1,0.5-1.4,1.3C8.8,5.6,9.3,5.1,9.8,5.1z M5.4,14.3c-2.3,0-4.2-3-4.2-6.7
				S3,0.9,5.4,0.9c0.2,0,0.4,0,0.6,0.1C3.8,1,1.9,4,1.9,7.7s1.8,6.7,4.1,6.7C5.7,14.3,5.6,14.3,5.4,14.3z"/>
		</g>
	</g>
</g>
</svg>
